<svg id="epIKJcDPNET1" xmlns="http://www.w3.org/2000/svg" xmlns:xlink="http://www.w3.org/1999/xlink" viewBox="0 0 300 300" shape-rendering="geometricPrecision" text-rendering="geometricPrecision" project-id="f801608ccf4a4720a646902ef640c689" export-id="3f398f68a28b45be838075739d905de1" cached="false"><defs><linearGradient id="epIKJcDPNET14-fill" x1="245.066688" y1="-99.211015" x2="209.45679" y2="-31.272195" spreadMethod="pad" gradientUnits="userSpaceOnUse" gradientTransform="translate(0 0)"><stop id="epIKJcDPNET14-fill-0" offset="4%" stop-color="#ffa028"/><stop id="epIKJcDPNET14-fill-1" offset="100%" stop-color="#f8b770"/></linearGradient><linearGradient id="epIKJcDPNET15-fill" x1="255.3" y1="224.31" x2="284.89" y2="357.04" spreadMethod="pad" gradientUnits="userSpaceOnUse" gradientTransform="translate(0 0)"><stop id="epIKJcDPNET15-fill-0" offset="1%" stop-color="#ad7875"/><stop id="epIKJcDPNET15-fill-1" offset="87%" stop-color="#7a5353"/></linearGradient><linearGradient id="epIKJcDPNET16-fill" x1="238.29" y1="220.26" x2="253.16" y2="282.32" spreadMethod="pad" gradientUnits="userSpaceOnUse" gradientTransform="translate(0 0)"><stop id="epIKJcDPNET16-fill-0" offset="12%" stop-color="#ff7a32"/><stop id="epIKJcDPNET16-fill-1" offset="84%" stop-color="#fc9d5d"/></linearGradient><linearGradient id="epIKJcDPNET18-fill" x1="193.957929" y1="-161.137213" x2="141.12291" y2="24.874297" spreadMethod="pad" gradientUnits="userSpaceOnUse" gradientTransform="translate(0 0)"><stop id="epIKJcDPNET18-fill-0" offset="0%" stop-color="#c9e5f0"/><stop id="epIKJcDPNET18-fill-1" offset="42%" stop-color="#95bbda"/><stop id="epIKJcDPNET18-fill-2" offset="63%" stop-color="#81aad1"/><stop id="epIKJcDPNET18-fill-3" offset="100%" stop-color="#7d7dc4"/></linearGradient><linearGradient id="epIKJcDPNET19-fill" x1="173.656893" y1="-105.113143" x2="152.090136" y2="23.226738" spreadMethod="pad" gradientUnits="userSpaceOnUse" gradientTransform="translate(0 0)"><stop id="epIKJcDPNET19-fill-0" offset="0%" stop-color="#def5ff"/><stop id="epIKJcDPNET19-fill-1" offset="35%" stop-color="#cae3f4"/><stop id="epIKJcDPNET19-fill-2" offset="79%" stop-color="#b6d0e8"/><stop id="epIKJcDPNET19-fill-3" offset="100%" stop-color="#a8a8cf"/></linearGradient></defs><g transform="translate(85.889692 78.077128)"><g><g><path d="M68,71h-8c-1.104569,0-2,.895431-2,2v14h12v-14c0-1.104569-.895431-2-2-2Z" fill="none" stroke="#5483cc" stroke-width="4" stroke-linecap="round" stroke-linejoin="round"/></g><path d="M82,67.3l-18-18-18,18v17.7c0,1.104569.895431,2,2,2h10v-14c0-1.104569.895431-2,2-2h8c1.104569,0,2,.895431,2,2v14h10c1.104569,0,2-.895431,2-2v-17.7Z" fill="none" stroke="#5483cc" stroke-width="4" stroke-linecap="round" stroke-linejoin="round"/><g transform="translate(0 16.388891)" opacity="0"><path d="M0,6v-6h6" transform="matrix(0.707107 0.707107 -0.707107 0.707107 64 73.166666)" fill="none" stroke="#5483cc" stroke-width="3.33" stroke-linecap="round" stroke-linejoin="round"/><path d="M70,89.166667v12.499999" transform="translate(-6 -15.166667)" fill="#ffd41d" stroke="#5483cc" stroke-width="3.33" stroke-linecap="round" stroke-linejoin="round"/></g><path d="M88,63.33v0L66.8,42.13c-.750273-.751108-1.768363-1.173147-2.83-1.173147s-2.079727.422039-2.83,1.173147L40,63.35v0c-1.264949,1.398884-1.211059,3.543861.12254,4.87746s3.478576,1.387489,4.87746.12254L64,49.3l19,19c.961356.939511,2.366058,1.265169,3.642747.844513s2.212677-1.517545,2.427253-2.844513c.235166-1.112789-.179174-2.262872-1.07-2.97Z" fill="none" stroke="#5483cc" stroke-width="4" stroke-linecap="round" stroke-linejoin="round"/></g></g><path d="" fill="none" stroke="#3f5787" stroke-width="0.6"/><g transform="translate(-33.194569 -44.920827)"><g><rect width="28.8" height="43.32" rx="0" ry="0" transform="matrix(0.707107 -0.707107 0.707107 0.707107 206.834272 230.61471)" fill="url(#epIKJcDPNET14-fill)"/><path d="M217.15,260l51.21,51.21c10.33,10.33,27,11.41,38.12,1.95c5.916399-5.047335,9.460509-12.332859,9.779368-20.103167s-2.616406-15.321718-8.099368-20.836833l-51.61-51.61c-.600299-.601499-1.4152-.939519-2.265-.939519s-1.664701.33802-2.265.939519l-34.87,34.87c-1.246027,1.249048-1.246027,3.270952,0,4.52Z" fill="url(#epIKJcDPNET15-fill)"/><path d="M234.18,277l39.39-39.39-17-17c-.600299-.601499-1.4152-.939519-2.265-.939519s-1.664701.33802-2.265.939519l-34.87,34.87c-.601499.600299-.939519,1.4152-.939519,2.265s.33802,1.664701.939519,2.265Z" fill="url(#epIKJcDPNET16-fill)"/></g><g><circle r="81.16" transform="matrix(0.707107 -0.707107 0.707107 0.707107 164.883837 168.298305)" fill="url(#epIKJcDPNET18-fill)"/><circle r="60.8" transform="matrix(0.707107 -0.707107 0.707107 0.707107 164.883837 168.298305)" fill="url(#epIKJcDPNET19-fill)"/></g></g></svg>
